<?xml version="1.0" encoding="utf-8" standalone="no"?>
<!DOCTYPE svg PUBLIC "-//W3C//DTD SVG 1.1//EN"
  "http://www.w3.org/Graphics/SVG/1.1/DTD/svg11.dtd">
<!-- Created with matplotlib (https://matplotlib.org/) -->
<svg height="152.635625pt" version="1.1" viewBox="0 0 243.857812 152.635625" width="243.857812pt" xmlns="http://www.w3.org/2000/svg" xmlns:xlink="http://www.w3.org/1999/xlink">
 <defs>
  <style type="text/css">
*{stroke-linecap:butt;stroke-linejoin:round;}
  </style>
 </defs>
 <g id="figure_1">
  <g id="patch_1">
   <path d="M -0 152.635625 
L 243.857813 152.635625 
L 243.857813 0 
L -0 0 
z
" style="fill:none;"/>
  </g>
  <g id="axes_1">
   <g id="patch_2">
    <path d="M 41.357813 115.92 
L 236.657813 115.92 
L 236.657813 7.2 
L 41.357813 7.2 
z
" style="fill:#ffffff;"/>
   </g>
   <g id="matplotlib.axis_1">
    <g id="xtick_1">
     <g id="line2d_1">
      <defs>
       <path d="M 0 0 
L 0 3.5 
" id="md23bce140c" style="stroke:#000000;stroke-width:0.8;"/>
      </defs>
      <g>
       <use style="stroke:#000000;stroke-width:0.8;" x="50.235085" xlink:href="#md23bce140c" y="115.92"/>
      </g>
     </g>
     <g id="text_1">
      <!-- 0 -->
      <defs>
       <path d="M 27.046875 69.921875 
Q 40.625 69.921875 46.6875 58.734375 
Q 51.375 50.09375 51.375 35.0625 
Q 51.375 20.796875 47.125 11.46875 
Q 40.96875 -1.90625 27 -1.90625 
Q 14.40625 -1.90625 8.25 9.03125 
Q 3.125 18.171875 3.125 33.546875 
Q 3.125 45.453125 6.203125 54 
Q 11.96875 69.921875 27.046875 69.921875 
z
M 26.953125 6.109375 
Q 33.796875 6.109375 37.84375 12.15625 
Q 41.890625 18.21875 41.890625 34.71875 
Q 41.890625 46.625 38.953125 54.3125 
Q 36.03125 62.015625 27.59375 62.015625 
Q 19.828125 62.015625 16.234375 54.703125 
Q 12.640625 47.40625 12.640625 33.203125 
Q 12.640625 22.515625 14.9375 16.015625 
Q 18.453125 6.109375 26.953125 6.109375 
z
" id="Helvetica-48"/>
      </defs>
      <g transform="translate(47.454616 130.093437)scale(0.1 -0.1)">
       <use xlink:href="#Helvetica-48"/>
      </g>
     </g>
    </g>
    <g id="xtick_2">
     <g id="line2d_2">
      <g>
       <use style="stroke:#000000;stroke-width:0.8;" x="85.744176" xlink:href="#md23bce140c" y="115.92"/>
      </g>
     </g>
     <g id="text_2">
      <!-- 20 -->
      <defs>
       <path d="M 3.125 0 
Q 3.609375 9.03125 6.859375 15.71875 
Q 10.109375 22.40625 19.53125 27.875 
L 28.90625 33.296875 
Q 35.203125 36.96875 37.75 39.546875 
Q 41.75 43.609375 41.75 48.828125 
Q 41.75 54.9375 38.078125 58.515625 
Q 34.421875 62.109375 28.328125 62.109375 
Q 19.28125 62.109375 15.828125 55.28125 
Q 13.96875 51.609375 13.765625 45.125 
L 4.828125 45.125 
Q 4.984375 54.25 8.203125 60.015625 
Q 13.921875 70.171875 28.375 70.171875 
Q 40.375 70.171875 45.921875 63.671875 
Q 51.46875 57.171875 51.46875 49.21875 
Q 51.46875 40.828125 45.5625 34.859375 
Q 42.140625 31.390625 33.296875 26.46875 
L 26.609375 22.75 
Q 21.828125 20.125 19.09375 17.71875 
Q 14.203125 13.484375 12.9375 8.296875 
L 51.125 8.296875 
L 51.125 0 
L 3.125 0 
z
" id="Helvetica-50"/>
      </defs>
      <g transform="translate(80.183239 130.093437)scale(0.1 -0.1)">
       <use xlink:href="#Helvetica-50"/>
       <use x="55.615234" xlink:href="#Helvetica-48"/>
      </g>
     </g>
    </g>
    <g id="xtick_3">
     <g id="line2d_3">
      <g>
       <use style="stroke:#000000;stroke-width:0.8;" x="121.253267" xlink:href="#md23bce140c" y="115.92"/>
      </g>
     </g>
     <g id="text_3">
      <!-- 40 -->
      <defs>
       <path d="M 33.0625 24.75 
L 33.0625 56.453125 
L 10.640625 24.75 
z
M 33.203125 0 
L 33.203125 17.09375 
L 2.546875 17.09375 
L 2.546875 25.6875 
L 34.578125 70.125 
L 42 70.125 
L 42 24.75 
L 52.296875 24.75 
L 52.296875 17.09375 
L 42 17.09375 
L 42 0 
z
" id="Helvetica-52"/>
      </defs>
      <g transform="translate(115.69233 130.093437)scale(0.1 -0.1)">
       <use xlink:href="#Helvetica-52"/>
       <use x="55.615234" xlink:href="#Helvetica-48"/>
      </g>
     </g>
    </g>
    <g id="xtick_4">
     <g id="line2d_4">
      <g>
       <use style="stroke:#000000;stroke-width:0.8;" x="156.762358" xlink:href="#md23bce140c" y="115.92"/>
      </g>
     </g>
     <g id="text_4">
      <!-- 60 -->
      <defs>
       <path d="M 29.25 70.21875 
Q 40.96875 70.21875 45.578125 64.140625 
Q 50.203125 58.0625 50.203125 51.609375 
L 41.5 51.609375 
Q 40.71875 55.765625 39.015625 58.109375 
Q 35.84375 62.5 29.390625 62.5 
Q 22.015625 62.5 17.671875 55.6875 
Q 13.328125 48.875 12.84375 36.1875 
Q 15.875 40.625 20.453125 42.828125 
Q 24.65625 44.78125 29.828125 44.78125 
Q 38.625 44.78125 45.15625 39.15625 
Q 51.703125 33.546875 51.703125 22.40625 
Q 51.703125 12.890625 45.5 5.53125 
Q 39.3125 -1.8125 27.828125 -1.8125 
Q 18.015625 -1.8125 10.890625 5.640625 
Q 3.765625 13.09375 3.765625 30.71875 
Q 3.765625 43.75 6.9375 52.828125 
Q 13.03125 70.21875 29.25 70.21875 
z
M 28.609375 6 
Q 35.546875 6 38.984375 10.65625 
Q 42.4375 15.328125 42.4375 21.6875 
Q 42.4375 27.046875 39.359375 31.90625 
Q 36.28125 36.765625 28.171875 36.765625 
Q 22.515625 36.765625 18.234375 33 
Q 13.96875 29.25 13.96875 21.6875 
Q 13.96875 15.046875 17.84375 10.515625 
Q 21.734375 6 28.609375 6 
z
" id="Helvetica-54"/>
      </defs>
      <g transform="translate(151.20142 130.093437)scale(0.1 -0.1)">
       <use xlink:href="#Helvetica-54"/>
       <use x="55.615234" xlink:href="#Helvetica-48"/>
      </g>
     </g>
    </g>
    <g id="xtick_5">
     <g id="line2d_5">
      <g>
       <use style="stroke:#000000;stroke-width:0.8;" x="192.271449" xlink:href="#md23bce140c" y="115.92"/>
      </g>
     </g>
     <g id="text_5">
      <!-- 80 -->
      <defs>
       <path d="M 27.203125 40.625 
Q 33.015625 40.625 36.28125 43.875 
Q 39.546875 47.125 39.546875 51.609375 
Q 39.546875 55.515625 36.421875 58.78125 
Q 33.296875 62.0625 26.90625 62.0625 
Q 20.5625 62.0625 17.71875 58.78125 
Q 14.890625 55.515625 14.890625 51.125 
Q 14.890625 46.1875 18.546875 43.40625 
Q 22.21875 40.625 27.203125 40.625 
z
M 27.734375 6 
Q 33.84375 6 37.859375 9.296875 
Q 41.890625 12.59375 41.890625 19.140625 
Q 41.890625 25.921875 37.734375 29.4375 
Q 33.59375 32.953125 27.09375 32.953125 
Q 20.796875 32.953125 16.8125 29.359375 
Q 12.84375 25.78125 12.84375 19.4375 
Q 12.84375 13.96875 16.484375 9.984375 
Q 20.125 6 27.734375 6 
z
M 15.234375 37.25 
Q 11.578125 38.8125 9.515625 40.921875 
Q 5.671875 44.828125 5.671875 51.078125 
Q 5.671875 58.890625 11.328125 64.5 
Q 17 70.125 27.390625 70.125 
Q 37.453125 70.125 43.15625 64.8125 
Q 48.875 59.515625 48.875 52.4375 
Q 48.875 45.90625 45.5625 41.84375 
Q 43.703125 39.546875 39.796875 37.359375 
Q 44.140625 35.359375 46.625 32.765625 
Q 51.265625 27.875 51.265625 20.0625 
Q 51.265625 10.84375 45.0625 4.421875 
Q 38.875 -2 27.546875 -2 
Q 17.328125 -2 10.265625 3.53125 
Q 3.21875 9.078125 3.21875 19.625 
Q 3.21875 25.828125 6.25 30.34375 
Q 9.28125 34.859375 15.234375 37.25 
z
" id="Helvetica-56"/>
      </defs>
      <g transform="translate(186.710511 130.093437)scale(0.1 -0.1)">
       <use xlink:href="#Helvetica-56"/>
       <use x="55.615234" xlink:href="#Helvetica-48"/>
      </g>
     </g>
    </g>
    <g id="xtick_6">
     <g id="line2d_6">
      <g>
       <use style="stroke:#000000;stroke-width:0.8;" x="227.78054" xlink:href="#md23bce140c" y="115.92"/>
      </g>
     </g>
     <g id="text_6">
      <!-- 100 -->
      <defs>
       <path d="M 9.578125 49.515625 
L 9.578125 56.25 
Q 19.09375 57.171875 22.84375 59.34375 
Q 26.609375 61.53125 28.46875 69.625 
L 35.40625 69.625 
L 35.40625 0 
L 26.03125 0 
L 26.03125 49.515625 
z
" id="Helvetica-49"/>
      </defs>
      <g transform="translate(219.439134 130.093437)scale(0.1 -0.1)">
       <use xlink:href="#Helvetica-49"/>
       <use x="55.615234" xlink:href="#Helvetica-48"/>
       <use x="111.230469" xlink:href="#Helvetica-48"/>
      </g>
     </g>
    </g>
    <g id="text_7">
     <!-- time t -->
     <defs>
      <path d="M 8.203125 66.890625 
L 17.09375 66.890625 
L 17.09375 52.296875 
L 25.4375 52.296875 
L 25.4375 45.125 
L 17.09375 45.125 
L 17.09375 10.984375 
Q 17.09375 8.25 18.953125 7.328125 
Q 19.96875 6.78125 22.359375 6.78125 
Q 23 6.78125 23.734375 6.8125 
Q 24.46875 6.84375 25.4375 6.9375 
L 25.4375 0 
Q 23.921875 -0.4375 22.28125 -0.625 
Q 20.65625 -0.828125 18.75 -0.828125 
Q 12.59375 -0.828125 10.390625 2.3125 
Q 8.203125 5.46875 8.203125 10.5 
L 8.203125 45.125 
L 1.125 45.125 
L 1.125 52.296875 
L 8.203125 52.296875 
z
" id="Helvetica-116"/>
      <path d="M 6.453125 52.046875 
L 15.375 52.046875 
L 15.375 0 
L 6.453125 0 
z
M 6.453125 71.734375 
L 15.375 71.734375 
L 15.375 61.765625 
L 6.453125 61.765625 
z
" id="Helvetica-105"/>
      <path d="M 6.453125 52.296875 
L 15.140625 52.296875 
L 15.140625 44.875 
Q 18.265625 48.734375 20.796875 50.484375 
Q 25.140625 53.46875 30.671875 53.46875 
Q 36.921875 53.46875 40.71875 50.390625 
Q 42.875 48.640625 44.625 45.21875 
Q 47.5625 49.421875 51.515625 51.4375 
Q 55.46875 53.46875 60.40625 53.46875 
Q 70.953125 53.46875 74.75 45.84375 
Q 76.8125 41.75 76.8125 34.8125 
L 76.8125 0 
L 67.671875 0 
L 67.671875 36.328125 
Q 67.671875 41.546875 65.0625 43.5 
Q 62.453125 45.453125 58.6875 45.453125 
Q 53.515625 45.453125 49.78125 41.984375 
Q 46.046875 38.53125 46.046875 30.421875 
L 46.046875 0 
L 37.109375 0 
L 37.109375 34.125 
Q 37.109375 39.453125 35.84375 41.890625 
Q 33.84375 45.5625 28.375 45.5625 
Q 23.390625 45.5625 19.3125 41.703125 
Q 15.234375 37.84375 15.234375 27.734375 
L 15.234375 0 
L 6.453125 0 
z
" id="Helvetica-109"/>
      <path d="M 28.21875 53.46875 
Q 33.796875 53.46875 39.015625 50.859375 
Q 44.234375 48.25 46.96875 44.09375 
Q 49.609375 40.140625 50.484375 34.859375 
Q 51.265625 31.25 51.265625 23.34375 
L 12.9375 23.34375 
Q 13.1875 15.375 16.703125 10.5625 
Q 20.21875 5.765625 27.59375 5.765625 
Q 34.46875 5.765625 38.578125 10.296875 
Q 40.921875 12.9375 41.890625 16.40625 
L 50.53125 16.40625 
Q 50.203125 13.53125 48.265625 9.984375 
Q 46.34375 6.453125 43.953125 4.203125 
Q 39.9375 0.296875 34.03125 -1.078125 
Q 30.859375 -1.859375 26.859375 -1.859375 
Q 17.09375 -1.859375 10.296875 5.25 
Q 3.515625 12.359375 3.515625 25.140625 
Q 3.515625 37.75 10.34375 45.609375 
Q 17.1875 53.46875 28.21875 53.46875 
z
M 42.234375 30.328125 
Q 41.703125 36.03125 39.75 39.453125 
Q 36.140625 45.796875 27.6875 45.796875 
Q 21.625 45.796875 17.515625 41.421875 
Q 13.421875 37.0625 13.1875 30.328125 
z
M 27.390625 53.5625 
z
" id="Helvetica-101"/>
      <path id="Helvetica-32"/>
     </defs>
     <g transform="translate(126.784375 143.35125)scale(0.1 -0.1)">
      <use xlink:href="#Helvetica-116"/>
      <use x="27.783203" xlink:href="#Helvetica-105"/>
      <use x="50" xlink:href="#Helvetica-109"/>
      <use x="133.300781" xlink:href="#Helvetica-101"/>
      <use x="188.916016" xlink:href="#Helvetica-32"/>
      <use x="216.699219" xlink:href="#Helvetica-116"/>
     </g>
    </g>
   </g>
   <g id="matplotlib.axis_2">
    <g id="ytick_1">
     <g id="line2d_7">
      <defs>
       <path d="M 0 0 
L -3.5 0 
" id="m4ac0949f26" style="stroke:#000000;stroke-width:0.8;"/>
      </defs>
      <g>
       <use style="stroke:#000000;stroke-width:0.8;" x="41.357813" xlink:href="#m4ac0949f26" y="111.258172"/>
      </g>
     </g>
     <g id="text_8">
      <!-- 0.0 -->
      <defs>
       <path d="M 8.546875 10.640625 
L 18.75 10.640625 
L 18.75 0 
L 8.546875 0 
z
" id="Helvetica-46"/>
      </defs>
      <g transform="translate(20.457813 114.84489)scale(0.1 -0.1)">
       <use xlink:href="#Helvetica-48"/>
       <use x="55.615234" xlink:href="#Helvetica-46"/>
       <use x="83.398438" xlink:href="#Helvetica-48"/>
      </g>
     </g>
    </g>
    <g id="ytick_2">
     <g id="line2d_8">
      <g>
       <use style="stroke:#000000;stroke-width:0.8;" x="41.357813" xlink:href="#m4ac0949f26" y="76.343456"/>
      </g>
     </g>
     <g id="text_9">
      <!-- 0.1 -->
      <g transform="translate(20.457813 79.930175)scale(0.1 -0.1)">
       <use xlink:href="#Helvetica-48"/>
       <use x="55.615234" xlink:href="#Helvetica-46"/>
       <use x="83.398438" xlink:href="#Helvetica-49"/>
      </g>
     </g>
    </g>
    <g id="ytick_3">
     <g id="line2d_9">
      <g>
       <use style="stroke:#000000;stroke-width:0.8;" x="41.357813" xlink:href="#m4ac0949f26" y="41.428741"/>
      </g>
     </g>
     <g id="text_10">
      <!-- 0.2 -->
      <g transform="translate(20.457813 45.015459)scale(0.1 -0.1)">
       <use xlink:href="#Helvetica-48"/>
       <use x="55.615234" xlink:href="#Helvetica-46"/>
       <use x="83.398438" xlink:href="#Helvetica-50"/>
      </g>
     </g>
    </g>
    <g id="text_11">
     <!-- infecteds -->
     <defs>
      <path d="M 6.453125 52.296875 
L 14.796875 52.296875 
L 14.796875 44.875 
Q 18.5 49.46875 22.65625 51.46875 
Q 26.8125 53.46875 31.890625 53.46875 
Q 43.015625 53.46875 46.921875 45.703125 
Q 49.078125 41.453125 49.078125 33.546875 
L 49.078125 0 
L 40.140625 0 
L 40.140625 32.953125 
Q 40.140625 37.75 38.71875 40.671875 
Q 36.375 45.5625 30.21875 45.5625 
Q 27.09375 45.5625 25.09375 44.921875 
Q 21.484375 43.84375 18.75 40.625 
Q 16.546875 38.03125 15.890625 35.265625 
Q 15.234375 32.515625 15.234375 27.390625 
L 15.234375 0 
L 6.453125 0 
z
M 27.09375 53.5625 
z
" id="Helvetica-110"/>
      <path d="M 8.640625 60.25 
Q 8.84375 65.71875 10.546875 68.265625 
Q 13.625 72.75 22.40625 72.75 
Q 23.25 72.75 24.125 72.703125 
Q 25 72.65625 26.125 72.5625 
L 26.125 64.546875 
Q 24.75 64.65625 24.140625 64.671875 
Q 23.53125 64.703125 23 64.703125 
Q 19 64.703125 18.21875 62.625 
Q 17.4375 60.546875 17.4375 52.046875 
L 26.125 52.046875 
L 26.125 45.125 
L 17.328125 45.125 
L 17.328125 0 
L 8.640625 0 
L 8.640625 45.125 
L 1.375 45.125 
L 1.375 52.046875 
L 8.640625 52.046875 
L 8.640625 60.25 
z
" id="Helvetica-102"/>
      <path d="M 26.609375 53.8125 
Q 35.453125 53.8125 40.984375 49.515625 
Q 46.53125 45.21875 47.65625 34.71875 
L 39.109375 34.71875 
Q 38.328125 39.546875 35.546875 42.75 
Q 32.765625 45.953125 26.609375 45.953125 
Q 18.21875 45.953125 14.59375 37.75 
Q 12.25 32.421875 12.25 24.609375 
Q 12.25 16.75 15.5625 11.375 
Q 18.890625 6 26.03125 6 
Q 31.5 6 34.6875 9.34375 
Q 37.890625 12.703125 39.109375 18.5 
L 47.65625 18.5 
Q 46.1875 8.109375 40.328125 3.296875 
Q 34.46875 -1.515625 25.34375 -1.515625 
Q 15.09375 -1.515625 8.984375 5.984375 
Q 2.875 13.484375 2.875 24.703125 
Q 2.875 38.484375 9.5625 46.140625 
Q 16.265625 53.8125 26.609375 53.8125 
z
M 25.25 53.5625 
z
" id="Helvetica-99"/>
      <path d="M 12.015625 25.53125 
Q 12.015625 17.140625 15.578125 11.46875 
Q 19.140625 5.8125 27 5.8125 
Q 33.109375 5.8125 37.03125 11.0625 
Q 40.96875 16.3125 40.96875 26.125 
Q 40.96875 36.03125 36.90625 40.796875 
Q 32.859375 45.5625 26.90625 45.5625 
Q 20.265625 45.5625 16.140625 40.484375 
Q 12.015625 35.40625 12.015625 25.53125 
z
M 25.25 53.21875 
Q 31.25 53.21875 35.296875 50.6875 
Q 37.640625 49.21875 40.625 45.5625 
L 40.625 71.96875 
L 49.078125 71.96875 
L 49.078125 0 
L 41.15625 0 
L 41.15625 7.28125 
Q 38.09375 2.4375 33.890625 0.28125 
Q 29.6875 -1.859375 24.265625 -1.859375 
Q 15.53125 -1.859375 9.125 5.484375 
Q 2.734375 12.84375 2.734375 25.046875 
Q 2.734375 36.46875 8.5625 44.84375 
Q 14.40625 53.21875 25.25 53.21875 
z
" id="Helvetica-100"/>
      <path d="M 11.671875 16.40625 
Q 12.0625 12.015625 13.875 9.671875 
Q 17.1875 5.421875 25.390625 5.421875 
Q 30.28125 5.421875 33.984375 7.546875 
Q 37.703125 9.671875 37.703125 14.109375 
Q 37.703125 17.484375 34.71875 19.234375 
Q 32.8125 20.3125 27.203125 21.734375 
L 20.21875 23.484375 
Q 13.53125 25.140625 10.359375 27.203125 
Q 4.6875 30.765625 4.6875 37.0625 
Q 4.6875 44.484375 10.03125 49.0625 
Q 15.375 53.65625 24.421875 53.65625 
Q 36.234375 53.65625 41.453125 46.734375 
Q 44.734375 42.328125 44.625 37.25 
L 36.328125 37.25 
Q 36.078125 40.234375 34.234375 42.671875 
Q 31.203125 46.140625 23.734375 46.140625 
Q 18.75 46.140625 16.1875 44.234375 
Q 13.625 42.328125 13.625 39.203125 
Q 13.625 35.796875 17 33.734375 
Q 18.953125 32.515625 22.75 31.59375 
L 28.5625 30.171875 
Q 38.03125 27.875 41.265625 25.734375 
Q 46.390625 22.359375 46.390625 15.140625 
Q 46.390625 8.15625 41.09375 3.078125 
Q 35.796875 -2 24.953125 -2 
Q 13.28125 -2 8.421875 3.296875 
Q 3.5625 8.59375 3.21875 16.40625 
z
M 24.65625 53.5625 
z
" id="Helvetica-115"/>
     </defs>
     <g transform="translate(14.373438 81.570937)rotate(-90)scale(0.1 -0.1)">
      <use xlink:href="#Helvetica-105"/>
      <use x="22.216797" xlink:href="#Helvetica-110"/>
      <use x="77.832031" xlink:href="#Helvetica-102"/>
      <use x="105.615234" xlink:href="#Helvetica-101"/>
      <use x="161.230469" xlink:href="#Helvetica-99"/>
      <use x="211.230469" xlink:href="#Helvetica-116"/>
      <use x="239.013672" xlink:href="#Helvetica-101"/>
      <use x="294.628906" xlink:href="#Helvetica-100"/>
      <use x="350.244141" xlink:href="#Helvetica-115"/>
     </g>
    </g>
   </g>
   <g id="line2d_10">
    <path clip-path="url(#p049743f678)" d="M 50.235085 107.898295 
L 52.01054 107.898295 
L 53.785994 107.338316 
L 55.561449 107.058326 
L 57.336903 107.618305 
L 59.112358 106.778336 
L 60.887813 107.338316 
L 62.663267 106.778336 
L 64.438722 105.938367 
L 66.214176 106.218357 
L 67.989631 107.058326 
L 69.765085 106.218357 
L 71.54054 104.818408 
L 73.315994 102.578491 
L 75.091449 100.618563 
L 76.866903 98.938625 
L 78.642358 96.418717 
L 80.417813 90.538934 
L 82.193267 88.299016 
L 83.968722 83.539191 
L 85.744176 80.179315 
L 87.519631 73.739552 
L 89.295085 69.819696 
L 91.07054 67.019799 
L 92.845994 58.340118 
L 94.621449 48.540479 
L 96.396903 40.420778 
L 98.172358 32.861056 
L 99.947813 29.22119 
L 101.723267 26.981272 
L 103.498722 19.141561 
L 105.274176 14.661725 
L 107.049631 13.541767 
L 108.825085 15.501695 
L 110.60054 15.781684 
L 112.375994 15.221705 
L 114.151449 12.141818 
L 115.926903 19.98153 
L 117.702358 23.341406 
L 119.477813 25.861313 
L 121.253267 27.541252 
L 123.028722 34.820984 
L 124.804176 39.020829 
L 126.579631 42.380706 
L 128.355085 47.70051 
L 130.13054 51.620366 
L 131.905994 56.100201 
L 133.681449 62.259974 
L 135.456903 67.019799 
L 137.232358 71.219645 
L 139.007813 77.099428 
L 140.783267 79.619336 
L 142.558722 84.099171 
L 144.334176 86.899068 
L 146.109631 89.698965 
L 147.885085 92.778851 
L 149.66054 95.858738 
L 151.435994 97.258687 
L 153.211449 96.978697 
L 154.986903 98.098656 
L 156.762358 99.218614 
L 158.537813 100.898553 
L 160.313267 100.618563 
L 162.088722 101.458532 
L 163.864176 101.458532 
L 165.639631 102.578491 
L 167.415085 103.978439 
L 169.19054 104.538419 
L 170.965994 105.098398 
L 172.741449 105.658378 
L 174.516903 106.218357 
L 176.292358 106.218357 
L 178.067813 107.338316 
L 179.843267 108.458275 
L 181.618722 108.458275 
L 183.394176 109.018254 
L 185.169631 108.738264 
L 186.945085 108.738264 
L 188.72054 109.298244 
L 190.495994 109.578233 
L 192.271449 109.858223 
L 194.046903 109.858223 
L 195.822358 109.858223 
L 197.597813 109.578233 
L 199.373267 109.298244 
L 201.148722 109.578233 
L 202.924176 110.138213 
L 204.699631 110.418202 
L 206.475085 110.418202 
L 208.25054 110.418202 
L 210.025994 110.698192 
L 211.801449 110.698192 
L 213.576903 110.698192 
L 215.352358 110.698192 
L 217.127813 110.698192 
L 218.903267 110.698192 
L 220.678722 110.418202 
L 222.454176 110.418202 
L 224.229631 110.698192 
L 226.005085 110.698192 
L 227.78054 110.978182 
" style="fill:none;stroke:#000000;stroke-linecap:square;stroke-width:1.5;"/>
   </g>
   <g id="line2d_11">
    <path clip-path="url(#p049743f678)" d="M 50.235085 108.453777 
L 52.01054 108.173337 
L 53.785994 107.332019 
L 55.561449 105.088503 
L 57.336903 104.527624 
L 59.112358 102.844987 
L 60.887813 99.479713 
L 62.663267 96.955758 
L 64.438722 95.553561 
L 66.214176 94.712242 
L 67.989631 90.50565 
L 69.765085 88.262134 
L 71.54054 84.335981 
L 73.315994 83.494663 
L 75.091449 78.727192 
L 76.866903 75.642357 
L 78.642358 70.033568 
L 80.417813 65.546536 
L 82.193267 63.863899 
L 83.968722 58.25511 
L 85.744176 58.25511 
L 87.519631 56.292033 
L 89.295085 56.292033 
L 91.07054 53.207199 
L 92.845994 52.085441 
L 94.621449 50.402804 
L 96.396903 45.915772 
L 98.172358 42.270059 
L 99.947813 40.306983 
L 101.723267 38.624346 
L 103.498722 38.343906 
L 105.274176 41.148301 
L 107.049631 41.148301 
L 108.825085 45.354893 
L 110.60054 43.111378 
L 112.375994 47.878849 
L 114.151449 53.207199 
L 115.926903 53.768078 
L 117.702358 52.36588 
L 119.477813 54.609396 
L 121.253267 59.376867 
L 123.028722 62.181262 
L 124.804176 64.985657 
L 126.579631 69.753128 
L 128.355085 70.874886 
L 130.13054 71.435765 
L 131.905994 75.361918 
L 133.681449 78.727192 
L 135.456903 80.690268 
L 137.232358 83.775102 
L 139.007813 85.1773 
L 140.783267 88.262134 
L 142.558722 91.907847 
L 144.334176 92.749166 
L 146.109631 94.431803 
L 147.885085 96.394879 
L 149.66054 97.516637 
L 151.435994 97.797076 
L 153.211449 98.357955 
L 154.986903 99.199274 
L 156.762358 99.479713 
L 158.537813 99.199274 
L 160.313267 102.003669 
L 162.088722 101.723229 
L 163.864176 101.723229 
L 165.639631 103.966745 
L 167.415085 103.686306 
L 169.19054 104.247184 
L 170.965994 105.088503 
L 172.741449 105.368942 
L 174.516903 105.649382 
L 176.292358 105.929821 
L 178.067813 105.649382 
L 179.843267 105.929821 
L 181.618722 106.4907 
L 183.394176 106.210261 
L 185.169631 107.612458 
L 186.945085 107.892898 
L 188.72054 107.612458 
L 190.495994 108.173337 
L 192.271449 109.014656 
L 194.046903 109.014656 
L 195.822358 109.014656 
L 197.597813 109.575535 
L 199.373267 109.855974 
L 201.148722 110.136414 
L 202.924176 110.416853 
L 204.699631 110.416853 
L 206.475085 110.136414 
L 208.25054 110.136414 
L 210.025994 110.416853 
L 211.801449 110.416853 
L 213.576903 110.697293 
L 215.352358 110.697293 
L 217.127813 110.697293 
L 218.903267 110.697293 
L 220.678722 110.697293 
L 222.454176 110.697293 
L 224.229631 110.697293 
L 226.005085 110.697293 
L 227.78054 110.697293 
" style="fill:none;stroke:#b22222;stroke-linecap:square;stroke-width:1.5;"/>
   </g>
   <g id="line2d_12">
    <path clip-path="url(#p049743f678)" d="M 50.235085 108.173337 
L 52.01054 107.051579 
L 53.785994 106.77114 
L 55.561449 106.77114 
L 57.336903 106.210261 
L 59.112358 105.649382 
L 60.887813 104.808063 
L 62.663267 104.808063 
L 64.438722 104.527624 
L 66.214176 104.527624 
L 67.989631 102.284108 
L 69.765085 101.44279 
L 71.54054 101.16235 
L 73.315994 99.760153 
L 75.091449 98.638395 
L 76.866903 98.638395 
L 78.642358 96.955758 
L 80.417813 94.992682 
L 82.193267 94.712242 
L 83.968722 91.627408 
L 85.744176 89.103452 
L 87.519631 86.018618 
L 89.295085 83.214223 
L 91.07054 82.372905 
L 92.845994 80.690268 
L 94.621449 79.007631 
L 96.396903 77.605434 
L 98.172358 74.24016 
L 99.947813 76.203236 
L 101.723267 72.557523 
L 103.498722 69.753128 
L 105.274176 67.509612 
L 107.049631 66.668294 
L 108.825085 67.229173 
L 110.60054 67.229173 
L 112.375994 67.790052 
L 114.151449 67.790052 
L 115.926903 69.472689 
L 117.702358 69.192249 
L 119.477813 70.874886 
L 121.253267 71.996644 
L 123.028722 71.716205 
L 124.804176 71.716205 
L 126.579631 71.996644 
L 128.355085 71.996644 
L 130.13054 72.837963 
L 131.905994 73.679281 
L 133.681449 74.520599 
L 135.456903 75.361918 
L 137.232358 76.483676 
L 139.007813 79.84895 
L 140.783267 79.84895 
L 142.558722 82.092465 
L 144.334176 83.214223 
L 146.109631 84.335981 
L 147.885085 84.616421 
L 149.66054 86.579497 
L 151.435994 86.299058 
L 153.211449 89.103452 
L 154.986903 90.50565 
L 156.762358 93.870924 
L 158.537813 93.310045 
L 160.313267 95.834 
L 162.088722 97.236197 
L 163.864176 98.357955 
L 165.639631 101.723229 
L 167.415085 102.844987 
L 169.19054 104.247184 
L 170.965994 104.247184 
L 172.741449 104.527624 
L 174.516903 104.527624 
L 176.292358 105.649382 
L 178.067813 106.210261 
L 179.843267 107.612458 
L 181.618722 108.173337 
L 183.394176 108.173337 
L 185.169631 107.892898 
L 186.945085 107.612458 
L 188.72054 108.734216 
L 190.495994 109.014656 
L 192.271449 109.295095 
L 194.046903 109.575535 
L 195.822358 109.575535 
L 197.597813 109.575535 
L 199.373267 109.855974 
L 201.148722 109.855974 
L 202.924176 110.136414 
L 204.699631 110.136414 
L 206.475085 110.136414 
L 208.25054 110.136414 
L 210.025994 110.136414 
L 211.801449 110.136414 
L 213.576903 110.416853 
L 215.352358 110.697293 
L 217.127813 110.697293 
L 218.903267 110.697293 
L 220.678722 110.697293 
L 222.454176 110.697293 
L 224.229631 110.697293 
L 226.005085 110.977732 
L 227.78054 110.977732 
" style="fill:none;stroke:#b22222;stroke-dasharray:5.55,2.4;stroke-dashoffset:0;stroke-width:1.5;"/>
   </g>
   <g id="patch_3">
    <path d="M 41.357813 115.92 
L 41.357813 7.2 
" style="fill:none;stroke:#000000;stroke-linecap:square;stroke-linejoin:miter;"/>
   </g>
   <g id="patch_4">
    <path d="M 236.657813 115.92 
L 236.657813 7.2 
" style="fill:none;stroke:#000000;stroke-linecap:square;stroke-linejoin:miter;"/>
   </g>
   <g id="patch_5">
    <path d="M 41.357813 115.92 
L 236.657813 115.92 
" style="fill:none;stroke:#000000;stroke-linecap:square;stroke-linejoin:miter;"/>
   </g>
   <g id="patch_6">
    <path d="M 41.357813 7.2 
L 236.657813 7.2 
" style="fill:none;stroke:#000000;stroke-linecap:square;stroke-linejoin:miter;"/>
   </g>
   <g id="legend_1">
    <g id="line2d_13">
     <path d="M 154.63125 19.873437 
L 174.63125 19.873437 
" style="fill:none;stroke:#000000;stroke-linecap:square;stroke-width:1.5;"/>
    </g>
    <g id="line2d_14"/>
    <g id="text_12">
     <!-- original -->
     <defs>
      <path d="M 27.203125 5.671875 
Q 35.9375 5.671875 39.1875 12.28125 
Q 42.4375 18.890625 42.4375 27 
Q 42.4375 34.328125 40.09375 38.921875 
Q 36.375 46.140625 27.296875 46.140625 
Q 19.234375 46.140625 15.578125 39.984375 
Q 11.921875 33.84375 11.921875 25.140625 
Q 11.921875 16.796875 15.578125 11.234375 
Q 19.234375 5.671875 27.203125 5.671875 
z
M 27.546875 53.8125 
Q 37.640625 53.8125 44.625 47.0625 
Q 51.609375 40.328125 51.609375 27.25 
Q 51.609375 14.59375 45.453125 6.34375 
Q 39.3125 -1.90625 26.375 -1.90625 
Q 15.578125 -1.90625 9.21875 5.390625 
Q 2.875 12.703125 2.875 25 
Q 2.875 38.1875 9.5625 46 
Q 16.265625 53.8125 27.546875 53.8125 
z
M 27.25 53.5625 
z
" id="Helvetica-111"/>
      <path d="M 6.6875 52.296875 
L 15.046875 52.296875 
L 15.046875 43.265625 
Q 16.0625 45.90625 20.0625 49.6875 
Q 24.078125 53.46875 29.296875 53.46875 
Q 29.546875 53.46875 30.125 53.421875 
Q 30.71875 53.375 32.125 53.21875 
L 32.125 43.953125 
Q 31.34375 44.09375 30.6875 44.140625 
Q 30.03125 44.1875 29.25 44.1875 
Q 22.609375 44.1875 19.046875 39.90625 
Q 15.484375 35.640625 15.484375 30.078125 
L 15.484375 0 
L 6.6875 0 
z
" id="Helvetica-114"/>
      <path d="M 24.90625 53.21875 
Q 31.0625 53.21875 35.640625 50.203125 
Q 38.140625 48.484375 40.71875 45.21875 
L 40.71875 51.8125 
L 48.828125 51.8125 
L 48.828125 4.25 
Q 48.828125 -5.71875 45.90625 -11.46875 
Q 40.4375 -22.125 25.25 -22.125 
Q 16.796875 -22.125 11.03125 -18.328125 
Q 5.28125 -14.546875 4.59375 -6.5 
L 13.53125 -6.5 
Q 14.15625 -10.015625 16.0625 -11.921875 
Q 19.046875 -14.84375 25.4375 -14.84375 
Q 35.546875 -14.84375 38.671875 -7.71875 
Q 40.53125 -3.515625 40.375 7.28125 
Q 37.75 3.265625 34.03125 1.3125 
Q 30.328125 -0.640625 24.21875 -0.640625 
Q 15.71875 -0.640625 9.34375 5.390625 
Q 2.984375 11.421875 2.984375 25.34375 
Q 2.984375 38.484375 9.40625 45.84375 
Q 15.828125 53.21875 24.90625 53.21875 
z
M 40.71875 26.375 
Q 40.71875 36.078125 36.71875 40.765625 
Q 32.71875 45.453125 26.515625 45.453125 
Q 17.234375 45.453125 13.8125 36.765625 
Q 12.015625 32.125 12.015625 24.609375 
Q 12.015625 15.765625 15.59375 11.15625 
Q 19.1875 6.546875 25.25 6.546875 
Q 34.71875 6.546875 38.578125 15.09375 
Q 40.71875 19.921875 40.71875 26.375 
z
M 25.921875 53.5625 
z
" id="Helvetica-103"/>
      <path d="M 13.1875 13.921875 
Q 13.1875 10.109375 15.96875 7.90625 
Q 18.75 5.71875 22.5625 5.71875 
Q 27.203125 5.71875 31.546875 7.859375 
Q 38.875 11.421875 38.875 19.53125 
L 38.875 26.609375 
Q 37.25 25.59375 34.703125 24.90625 
Q 32.171875 24.21875 29.734375 23.921875 
L 24.421875 23.25 
Q 19.625 22.609375 17.234375 21.234375 
Q 13.1875 18.953125 13.1875 13.921875 
z
M 34.46875 31.6875 
Q 37.5 32.078125 38.53125 34.234375 
Q 39.109375 35.40625 39.109375 37.59375 
Q 39.109375 42.09375 35.90625 44.109375 
Q 32.71875 46.140625 26.765625 46.140625 
Q 19.875 46.140625 17 42.4375 
Q 15.375 40.375 14.890625 36.328125 
L 6.6875 36.328125 
Q 6.9375 46 12.96875 49.78125 
Q 19 53.5625 26.953125 53.5625 
Q 36.1875 53.5625 41.9375 50.046875 
Q 47.65625 46.53125 47.65625 39.109375 
L 47.65625 8.984375 
Q 47.65625 7.625 48.21875 6.78125 
Q 48.78125 5.953125 50.59375 5.953125 
Q 51.171875 5.953125 51.90625 6.03125 
Q 52.640625 6.109375 53.46875 6.25 
L 53.46875 -0.25 
Q 51.421875 -0.828125 50.34375 -0.96875 
Q 49.265625 -1.125 47.40625 -1.125 
Q 42.875 -1.125 40.828125 2.09375 
Q 39.75 3.8125 39.3125 6.9375 
Q 36.625 3.421875 31.59375 0.828125 
Q 26.5625 -1.765625 20.515625 -1.765625 
Q 13.234375 -1.765625 8.609375 2.65625 
Q 4 7.078125 4 13.71875 
Q 4 21 8.546875 25 
Q 13.09375 29 20.453125 29.9375 
z
M 27.203125 53.5625 
z
" id="Helvetica-97"/>
      <path d="M 6.6875 71.734375 
L 15.484375 71.734375 
L 15.484375 0 
L 6.6875 0 
z
" id="Helvetica-108"/>
     </defs>
     <g transform="translate(182.63125 23.373437)scale(0.1 -0.1)">
      <use xlink:href="#Helvetica-111"/>
      <use x="55.615234" xlink:href="#Helvetica-114"/>
      <use x="88.916016" xlink:href="#Helvetica-105"/>
      <use x="111.132812" xlink:href="#Helvetica-103"/>
      <use x="166.748047" xlink:href="#Helvetica-105"/>
      <use x="188.964844" xlink:href="#Helvetica-110"/>
      <use x="244.580078" xlink:href="#Helvetica-97"/>
      <use x="300.195312" xlink:href="#Helvetica-108"/>
     </g>
    </g>
    <g id="line2d_15">
     <path d="M 154.63125 34.282812 
L 174.63125 34.282812 
" style="fill:none;stroke:#b22222;stroke-linecap:square;stroke-width:1.5;"/>
    </g>
    <g id="line2d_16"/>
    <g id="text_13">
     <!-- distancing -->
     <g transform="translate(182.63125 37.782812)scale(0.1 -0.1)">
      <use xlink:href="#Helvetica-100"/>
      <use x="55.615234" xlink:href="#Helvetica-105"/>
      <use x="77.832031" xlink:href="#Helvetica-115"/>
      <use x="127.832031" xlink:href="#Helvetica-116"/>
      <use x="155.615234" xlink:href="#Helvetica-97"/>
      <use x="211.230469" xlink:href="#Helvetica-110"/>
      <use x="266.845703" xlink:href="#Helvetica-99"/>
      <use x="316.845703" xlink:href="#Helvetica-105"/>
      <use x="339.0625" xlink:href="#Helvetica-110"/>
      <use x="394.677734" xlink:href="#Helvetica-103"/>
     </g>
    </g>
    <g id="line2d_17">
     <path d="M 154.63125 48.66875 
L 174.63125 48.66875 
" style="fill:none;stroke:#b22222;stroke-dasharray:5.55,2.4;stroke-dashoffset:0;stroke-width:1.5;"/>
    </g>
    <g id="line2d_18"/>
    <g id="text_14">
     <!-- isolation -->
     <g transform="translate(182.63125 52.16875)scale(0.1 -0.1)">
      <use xlink:href="#Helvetica-105"/>
      <use x="22.216797" xlink:href="#Helvetica-115"/>
      <use x="72.216797" xlink:href="#Helvetica-111"/>
      <use x="127.832031" xlink:href="#Helvetica-108"/>
      <use x="150.048828" xlink:href="#Helvetica-97"/>
      <use x="205.664062" xlink:href="#Helvetica-116"/>
      <use x="233.447266" xlink:href="#Helvetica-105"/>
      <use x="255.664062" xlink:href="#Helvetica-111"/>
      <use x="311.279297" xlink:href="#Helvetica-110"/>
     </g>
    </g>
   </g>
  </g>
 </g>
 <defs>
  <clipPath id="p049743f678">
   <rect height="108.72" width="195.3" x="41.357813" y="7.2"/>
  </clipPath>
 </defs>
</svg>
